<?xml version="1.0" encoding="UTF-8"?>
<svg width="167px" height="339px" viewBox="0 0 167 339" version="1.1" xmlns="http://www.w3.org/2000/svg" xmlns:xlink="http://www.w3.org/1999/xlink">
    <!-- Generator: Sketch 60.1 (88133) - https://sketch.com -->
    <title>Group 3</title>
    <desc>Created with Sketch.</desc>
    <g id="Page-1" stroke="none" stroke-width="1" fill="none" fill-rule="evenodd">
        <g id="Doc---Landing-Page-Copy" transform="translate(-1433.000000, -241.000000)">
            <g id="Group-+-Group-6-Mask" transform="translate(0.000000, 80.000000)">
                <g id="Group-3" transform="translate(1430.000000, 161.000000)">
                    <g id="Group" transform="translate(0.000000, 105.000000)" fill="#006ABB">
                        <circle id="Oval" cx="280.5" cy="280.5" r="280.5"/>
                    </g>
                    <g id="Group-6" transform="translate(78.000000, 0.000000)" fill="#0A89DB">
                        <polygon id="Fill-7" points="77.2055386 54.2605464 91.54371 54.2605464 91.54371 40 77.2055386 40"/>
                        <polygon id="Fill-9" points="77.2055386 93.7512904 91.54371 93.7512904 91.54371 79.490744 77.2055386 79.490744"/>
                        <polygon id="Fill-10" points="77.2055386 134.338999 91.54371 134.338999 91.54371 120.078453 77.2055386 120.078453"/>
                        <polygon id="Fill-11" points="77.2055386 172.732778 91.54371 172.732778 91.54371 158.472232 77.2055386 158.472232"/>
                        <polygon id="Fill-12" points="77.2055386 214.417452 91.54371 214.417452 91.54371 200.156906 77.2055386 200.156906"/>
                        <polygon id="Fill-13" points="77.2055386 255.005162 91.54371 255.005162 91.54371 240.744615 77.2055386 240.744615"/>
                        <polygon id="Fill-17" points="38.6027693 54.2605464 52.9409407 54.2605464 52.9409407 40 38.6027693 40"/>
                        <polygon id="Fill-7" points="77.2055386 14.2605464 91.54371 14.2605464 91.54371 6.21724894e-14 77.2055386 6.21724894e-14"/>
                        <polygon id="Fill-18" points="38.6027693 93.7512904 52.9409407 93.7512904 52.9409407 79.490744 38.6027693 79.490744"/>
                        <polygon id="Fill-19" points="38.6027693 134.338999 52.9409407 134.338999 52.9409407 120.078453 38.6027693 120.078453"/>
                        <polygon id="Fill-20" points="38.6027693 172.732778 52.9409407 172.732778 52.9409407 158.472232 38.6027693 158.472232"/>
                        <polygon id="Fill-21" points="38.6027693 214.417452 52.9409407 214.417452 52.9409407 200.156906 38.6027693 200.156906"/>
                        <polygon id="Fill-22" points="38.6027693 255.005162 52.9409407 255.005162 52.9409407 240.744615 38.6027693 240.744615"/>
                        <polygon id="Fill-23" points="38.6027693 293.39894 52.9409407 293.39894 52.9409407 279.138394 38.6027693 279.138394"/>
                        <polygon id="Fill-27" points="7.63833441e-14 93.7512904 14.3381714 93.7512904 14.3381714 79.490744 7.63833441e-14 79.490744"/>
                        <polygon id="Fill-28" points="7.63833441e-14 134.338999 14.3381714 134.338999 14.3381714 120.078453 7.63833441e-14 120.078453"/>
                        <polygon id="Fill-29" points="7.63833441e-14 172.732778 14.3381714 172.732778 14.3381714 158.472232 7.63833441e-14 158.472232"/>
                        <polygon id="Fill-30" points="7.63833441e-14 214.417452 14.3381714 214.417452 14.3381714 200.156906 7.63833441e-14 200.156906"/>
                        <polygon id="Fill-31" points="7.63833441e-14 255.005162 14.3381714 255.005162 14.3381714 240.744615 7.63833441e-14 240.744615"/>
                        <polygon id="Fill-32" points="7.63833441e-14 293.39894 14.3381714 293.39894 14.3381714 279.138394 7.63833441e-14 279.138394"/>
                        <polygon id="Fill-33" points="7.63833441e-14 332.889684 14.3381714 332.889684 14.3381714 318.629138 7.63833441e-14 318.629138"/>
                    </g>
                </g>
            </g>
        </g>
    </g>
</svg>
