<?xml version="1.0" encoding="UTF-8"?>
<svg width="170px" height="259px" viewBox="0 0 170 259" version="1.1" xmlns="http://www.w3.org/2000/svg" xmlns:xlink="http://www.w3.org/1999/xlink">
    <!-- Generator: Sketch 60.1 (88133) - https://sketch.com -->
    <title>Group 13</title>
    <desc>Created with Sketch.</desc>
    <g id="Page-1" stroke="none" stroke-width="1" fill="none" fill-rule="evenodd">
        <g id="Doc---Landing-Page-Copy" transform="translate(0.000000, -80.000000)">
            <g id="Group-+-Group-6-Mask" transform="translate(0.000000, 80.000000)">
                <g id="Group-5" transform="translate(-398.000000, -279.000000)">
                    <g id="Group-13">
                        <path d="M22.1974903,175.149566 L256.19749,18.6002706 C273.023373,7.34351805 294.976627,7.34351805 311.80251,18.6002706 L545.80251,175.149566 C559.673471,184.429435 568,200.018097 568,216.707002 L568,327.292998 C568,343.981903 559.673471,359.570565 545.80251,368.850434 L311.80251,525.399729 C294.976627,536.656482 273.023373,536.656482 256.19749,525.399729 L22.1974903,368.850434 C8.32652864,359.570565 4.46763655e-14,343.981903 0,327.292998 L0,216.707002 C-9.45516387e-15,200.018097 8.32652864,184.429435 22.1974903,175.149566 Z" id="Rectangle" fill="#0A89DB"/>
                        <polygon id="Rectangle" fill="#006ABB" points="513.090865 217 532 217 531.996676 477.5 513 477.5"/>
                        <polygon id="Rectangle" fill="#006ABB" points="471.095648 277 491 277 490.996501 537.5 471 537.5"/>
                    </g>
                </g>
            </g>
        </g>
    </g>
</svg>